<svg width="136" height="136" viewBox="0 0 136 136" fill="none" xmlns="http://www.w3.org/2000/svg">
<mask id="mask0_6_171" style="mask-type:luminance" maskUnits="userSpaceOnUse" x="0" y="0" width="136" height="136">
<path d="M0 0H136V136H0V0Z" fill="white"/>
</mask>
<g mask="url(#mask0_6_171)">
<path d="M112.371 23.6287C106.669 17.9273 97.0021 17.0555 85.1489 21.1738C67.8394 27.188 43.531 43.4119 12.8986 69.3943C8.8984 72.7894 4.93425 76.2268 1.00684 79.7058C1.26915 81.214 1.58259 82.7128 1.94662 84.1997C6.16421 80.4443 10.713 76.4726 15.476 72.4327C45.3059 47.1309 69.8505 30.7073 86.4565 24.9377C96.7878 21.3472 104.991 21.8832 109.554 26.4459C114.117 31.0088 114.652 39.2116 111.062 49.5433C105.294 66.1451 88.8766 90.6825 63.5852 120.503C59.7112 125.067 55.7826 129.584 51.8002 134.053C53.2871 134.417 54.7859 134.731 56.294 134.993C59.7731 131.066 63.2105 127.101 66.6056 123.101C92.588 92.4688 108.812 68.1604 114.826 50.851C118.945 38.998 118.073 29.3303 112.371 23.6287Z" fill="#DAD9DD"/>
<path d="M117.33 13.948C112.875 10.0866 107.727 7.10872 102.158 5.17331H71.653C66.0849 7.10866 60.9363 10.0866 56.4821 13.948L41.2501 40.3306C40.6987 43.2192 40.4212 46.1534 40.4214 49.0941C40.4214 52.0904 40.7085 55.0192 41.2501 57.8576L56.4821 84.2403C60.9363 88.1017 66.0849 91.0796 71.653 93.015H102.158C107.727 91.0795 112.875 88.1016 117.33 84.2403L132.562 57.8576C133.113 54.9691 133.39 52.0349 133.39 49.0941C133.39 46.0979 133.103 43.1691 132.562 40.3306L117.33 13.948Z" fill="#EBEAEC"/>
<path d="M56.4795 13.9525L41.2456 40.3383C40.6962 43.2246 40.4203 46.1563 40.4214 49.0944C40.4214 52.0907 40.7083 55.0194 41.2499 57.8579L56.4819 84.2403C60.9361 88.1018 66.0848 91.0798 71.653 93.0152H102.158V93.0174C107.787 91.0632 112.922 88.0576 117.332 84.2358L122.979 74.456C117.178 77.0578 110.747 78.5065 103.978 78.5065C78.3054 78.5065 57.4936 57.6948 57.4936 32.0222C57.4936 23.5681 59.7512 15.6416 63.6952 8.81158C61.1322 10.2923 58.7161 12.0137 56.4795 13.9525Z" fill="#DAD9DD"/>
<path d="M73.2027 39.3935L85.3566 32.3765C85.8277 32.1046 86.3621 31.9614 86.906 31.9614C87.45 31.9614 87.9844 32.1046 88.4554 32.3765L100.609 39.3935C101.08 39.6655 101.472 40.0568 101.744 40.5279C102.016 40.999 102.159 41.5334 102.159 42.0774V56.1115C102.159 57.2186 101.568 58.2415 100.609 58.7951L88.4554 65.8121C87.9844 66.0841 87.45 66.2272 86.906 66.2272C86.3621 66.2272 85.8277 66.0841 85.3566 65.8121L73.2027 58.7951C72.7316 58.5231 72.3404 58.1319 72.0684 57.6609C71.7965 57.1898 71.6533 56.6554 71.6533 56.1115V42.0774C71.6533 40.9703 72.2438 39.9471 73.2027 39.3935Z" fill="#7C5577"/>
<path d="M86.906 2.60973C81.5627 2.60973 76.4314 3.51392 71.6533 5.17328V9.62675C71.6533 10.7339 72.2438 11.7571 73.2027 12.3106L85.3566 19.3276C85.8277 19.5996 86.3621 19.7428 86.906 19.7428C87.45 19.7428 87.9844 19.5996 88.4554 19.3276L100.609 12.3106C101.08 12.0386 101.472 11.6474 101.744 11.1763C102.016 10.7052 102.159 10.1707 102.159 9.62675V5.17328C97.3807 3.51392 92.2494 2.60973 86.906 2.60973Z" fill="#7C5577"/>
<path d="M100.609 85.8779L88.4554 78.8609C87.9844 78.5889 87.45 78.4457 86.906 78.4457C86.3621 78.4457 85.8277 78.5889 85.3566 78.8609L73.2027 85.8779C72.7316 86.1499 72.3404 86.5411 72.0684 87.0122C71.7964 87.4834 71.6533 88.0178 71.6533 88.5618V93.0152C76.4316 94.6743 81.563 95.5788 86.906 95.5788C92.2494 95.5788 97.3807 94.6743 102.159 93.0152V88.5618C102.159 87.4547 101.568 86.4315 100.609 85.8779Z" fill="#603256"/>
<path d="M41.2471 40.3458L45.0997 42.5701C45.5708 42.8421 46.1051 42.9853 46.6491 42.9853C47.193 42.9853 47.7274 42.8421 48.1985 42.5701L60.3524 35.5531C60.8235 35.2811 61.2147 34.8899 61.4867 34.4188C61.7587 33.9477 61.9018 33.4132 61.9018 32.8692V18.8352C61.9018 17.7281 61.3113 16.7052 60.3524 16.1516L56.504 13.9296C48.7507 20.6385 43.2424 29.8693 41.2471 40.3458Z" fill="#7C5577"/>
<path d="M57.4937 32.0222C57.4937 26.4342 58.4808 21.0771 60.2886 16.1144L56.5056 13.9302C48.7523 20.6388 43.2403 29.868 41.2446 40.3442L45.0999 42.5699C45.571 42.8419 46.1054 42.985 46.6493 42.985C47.1933 42.985 47.7276 42.8419 48.1987 42.5699L57.7649 37.047C57.5847 35.3781 57.4942 33.7008 57.4937 32.0222Z" fill="#603256"/>
<path d="M128.712 55.6187C128.241 55.3467 127.707 55.2035 127.163 55.2035C126.619 55.2035 126.084 55.3467 125.613 55.6187L113.459 62.6357C112.988 62.9077 112.597 63.2989 112.325 63.77C112.053 64.2411 111.91 64.7756 111.91 65.3196V79.3536C111.91 80.4607 112.5 81.4836 113.459 82.0372L117.308 84.2592C125.061 77.5503 130.569 68.3195 132.565 57.843L128.712 55.6187Z" fill="#7C5577"/>
<path d="M111.91 77.8311V79.3534C111.91 80.4605 112.5 81.4837 113.459 82.0373L117.306 84.2584C121.244 80.8526 124.584 76.8123 127.189 72.3048C122.462 75.0354 117.289 76.9065 111.91 77.8311Z" fill="#603256"/>
<path d="M60.3529 62.6357L48.199 55.6187C47.7279 55.3467 47.1935 55.2035 46.6496 55.2035C46.1056 55.2035 45.5713 55.3467 45.1002 55.6187L41.2476 57.843C43.2429 68.3193 48.7512 77.5503 56.5045 84.2592L60.3529 82.0372C60.824 81.7652 61.2152 81.3741 61.4872 80.903C61.7591 80.4319 61.9023 79.8975 61.9023 79.3536V65.3196C61.9023 64.2122 61.3118 63.1892 60.3529 62.6357Z" fill="#603256"/>
<path d="M117.308 13.9294L113.459 16.1513C112.988 16.4233 112.597 16.8145 112.325 17.2856C112.053 17.7568 111.91 18.2912 111.91 18.8352V32.8692C111.91 33.9764 112.5 34.9993 113.459 35.5528L125.613 42.5699C126.084 42.8418 126.619 42.985 127.163 42.985C127.707 42.985 128.241 42.8418 128.712 42.5699L132.565 40.3455C130.569 29.8693 125.061 20.6383 117.308 13.9294Z" fill="#7C5577"/>
<path d="M122.002 14.4367C121.943 14.3544 121.877 14.272 121.802 14.1976C121.728 14.1233 121.646 14.0569 121.563 13.9984C112.803 5.34703 100.778 -1.52588e-05 87.5235 -1.52588e-05C84.49 -1.52588e-05 81.3371 0.247025 78.0646 0.741089H78.0619C69.7027 2.00281 60.5838 4.8689 50.8353 9.30483C40.0828 14.2003 28.5228 21.0189 16.4794 29.5694C13.5841 31.6253 10.795 33.6866 8.1441 35.7106C6.76816 38.25 5.5516 40.8903 4.50504 43.613C8.80816 40.1651 13.6186 36.4862 18.7877 32.818C45.3555 13.9559 69.1236 3.98436 87.5235 3.98436C88.8489 3.98436 90.1638 4.0428 91.46 4.15701C101.461 5.03889 110.519 9.24108 117.528 15.6533L114.654 18.5273L87.4943 45.6901C79.0554 37.9127 68.4171 33.6467 55.8344 33.0066C45.3396 32.4726 33.4847 34.4622 20.6019 38.9141C14.4979 41.0258 8.76832 43.4748 3.66832 45.9133C3.08129 47.6266 2.55801 49.369 2.10645 51.1408C7.88113 48.2242 14.6493 45.1908 21.9035 42.6806C49.0982 33.2801 70.2021 35.2431 84.676 48.5084L18.53 114.654C19.4411 115.619 20.3814 116.559 21.3457 117.47L87.4916 51.3241C100.744 65.782 102.715 86.862 93.346 114.02C90.8332 121.3 87.7838 128.095 84.8566 133.894C86.6283 133.442 88.3735 132.921 90.0868 132.332C92.5279 127.234 94.9743 121.505 97.086 115.398C101.538 102.515 103.525 90.6605 102.993 80.1656C102.353 67.583 98.0874 56.9447 90.3099 48.5058L117.473 21.3456L120.347 18.4716C126.759 25.4814 130.961 34.5392 131.843 44.54C131.957 45.8362 132.016 47.1511 132.016 48.4766C132.016 66.8658 122.057 90.618 103.217 117.165C99.5377 122.35 95.8455 127.179 92.3871 131.495C95.1097 130.448 97.75 129.232 100.289 127.856C102.313 125.205 104.375 122.416 106.431 119.521C114.981 107.477 121.8 95.9172 126.695 85.1647C131.131 75.4162 133.997 66.2973 135.259 57.9381V57.9355C135.753 54.663 136 51.51 136 48.4766C136 35.2219 130.653 23.197 122.002 14.4367Z" fill="white"/>
</g>
</svg>
