<svg width="627" height="139" viewBox="0 0 627 139" fill="none" xmlns="http://www.w3.org/2000/svg">
<mask id="mask0_11_2" style="mask-type:luminance" maskUnits="userSpaceOnUse" x="0" y="3" width="136" height="136">
<path d="M0 3H136V139H0V3Z" fill="white"/>
</mask>
<g mask="url(#mask0_11_2)">
<path d="M112.371 26.6287C106.67 20.9273 97.0024 20.0555 85.1491 24.1738C67.8397 30.188 43.5313 46.4119 12.8988 72.3943C8.89864 75.7894 4.9345 79.2268 1.00708 82.7058C1.2694 84.214 1.58283 85.7128 1.94686 87.1997C6.16445 83.4443 10.7133 79.4726 15.4762 75.4327C45.3062 50.1309 69.8507 33.7073 86.4568 27.9377C96.788 24.3472 104.991 24.8832 109.554 29.4459C114.117 34.0088 114.653 42.2116 111.062 52.5433C105.294 69.1451 88.8769 93.6825 63.5854 123.503C59.7115 128.067 55.7829 132.584 51.8004 137.053C53.2873 137.417 54.7861 137.731 56.2943 137.993C59.7733 134.066 63.2107 130.101 66.6058 126.101C92.5882 95.4688 108.812 71.1604 114.826 53.851C118.945 41.998 118.073 32.3303 112.371 26.6287Z" fill="#DAD9DD"/>
<path d="M117.329 16.948C112.875 13.0866 107.726 10.1087 102.158 8.17331H71.6528C66.0847 10.1087 60.936 13.0866 56.4819 16.948L41.2499 43.3306C40.6984 46.2192 40.421 49.1534 40.4211 52.0941C40.4211 55.0904 40.7083 58.0192 41.2499 60.8576L56.4819 87.2403C60.936 91.1017 66.0847 94.0796 71.6528 96.015H102.158C107.726 94.0795 112.875 91.1016 117.329 87.2403L132.561 60.8576C133.113 57.9691 133.39 55.0349 133.39 52.0941C133.39 49.0979 133.103 46.1691 132.561 43.3306L117.329 16.948Z" fill="#EBEAEC"/>
<path d="M56.4792 16.9525L41.2454 43.3383C40.696 46.2246 40.42 49.1563 40.4211 52.0944C40.4211 55.0907 40.708 58.0194 41.2496 60.8579L56.4816 87.2403C60.9358 91.1018 66.0846 94.0798 71.6528 96.0152H102.158V96.0174C107.786 94.0632 112.922 91.0576 117.332 87.2358L122.978 77.456C117.177 80.0578 110.747 81.5065 103.978 81.5065C78.3051 81.5065 57.4934 60.6948 57.4934 35.0222C57.4934 26.5681 59.7509 18.6416 63.6949 11.8116C61.132 13.2923 58.7158 15.0137 56.4792 16.9525Z" fill="#DAD9DD"/>
<path d="M73.2025 42.3935L85.3564 35.3765C85.8275 35.1046 86.3618 34.9614 86.9058 34.9614C87.4497 34.9614 87.9841 35.1046 88.4552 35.3765L100.609 42.3935C101.08 42.6655 101.471 43.0568 101.743 43.5279C102.015 43.999 102.159 44.5334 102.159 45.0774V59.1115C102.159 60.2186 101.568 61.2415 100.609 61.7951L88.4552 68.8121C87.9841 69.0841 87.4497 69.2272 86.9058 69.2272C86.3618 69.2272 85.8275 69.0841 85.3564 68.8121L73.2025 61.7951C72.7314 61.5231 72.3402 61.1319 72.0682 60.6609C71.7962 60.1898 71.6531 59.6554 71.6531 59.1115V45.0774C71.6531 43.9703 72.2436 42.9471 73.2025 42.3935Z" fill="#7C5577"/>
<path d="M86.9058 5.60973C81.5625 5.60973 76.4311 6.51392 71.6531 8.17328V12.6267C71.6531 13.7339 72.2436 14.7571 73.2025 15.3106L85.3564 22.3276C85.8275 22.5996 86.3618 22.7428 86.9058 22.7428C87.4497 22.7428 87.9841 22.5996 88.4552 22.3276L100.609 15.3106C101.08 15.0386 101.471 14.6474 101.743 14.1763C102.015 13.7052 102.159 13.1707 102.159 12.6267V8.17328C97.3805 6.51392 92.2491 5.60973 86.9058 5.60973Z" fill="#7C5577"/>
<path d="M100.609 88.8779L88.4552 81.8609C87.9841 81.5889 87.4497 81.4457 86.9058 81.4457C86.3618 81.4457 85.8275 81.5889 85.3564 81.8609L73.2025 88.8779C72.7314 89.1499 72.3401 89.5411 72.0682 90.0122C71.7962 90.4834 71.653 91.0178 71.6531 91.5618V96.0152C76.4314 97.6743 81.5627 98.5788 86.9058 98.5788C92.2491 98.5788 97.3805 97.6743 102.159 96.0152V91.5618C102.159 90.4547 101.568 89.4315 100.609 88.8779Z" fill="#603256"/>
<path d="M41.2471 43.3458L45.0997 45.5701C45.5708 45.8421 46.1051 45.9853 46.6491 45.9853C47.193 45.9853 47.7274 45.8421 48.1985 45.5701L60.3524 38.5531C60.8235 38.2811 61.2147 37.8899 61.4867 37.4188C61.7587 36.9477 61.9018 36.4132 61.9018 35.8692V21.8352C61.9018 20.7281 61.3113 19.7052 60.3524 19.1516L56.504 16.9296C48.7507 23.6385 43.2424 32.8693 41.2471 43.3458Z" fill="#7C5577"/>
<path d="M57.4935 35.0222C57.4935 29.4342 58.4805 24.0771 60.2884 19.1144L56.5053 16.9302C48.752 23.6388 43.24 32.868 41.2444 43.3442L45.0997 45.5699C45.5707 45.8419 46.1051 45.985 46.6491 45.985C47.193 45.985 47.7274 45.8419 48.1984 45.5699L57.7647 40.047C57.5845 38.3781 57.4939 36.7008 57.4935 35.0222Z" fill="#603256"/>
<path d="M128.712 58.6187C128.241 58.3467 127.706 58.2035 127.162 58.2035C126.618 58.2035 126.084 58.3467 125.613 58.6187L113.459 65.6357C112.988 65.9077 112.597 66.2989 112.325 66.77C112.053 67.2411 111.909 67.7756 111.909 68.3196V82.3536C111.909 83.4607 112.5 84.4836 113.459 85.0372L117.307 87.2592C125.061 80.5503 130.569 71.3195 132.564 60.843L128.712 58.6187Z" fill="#7C5577"/>
<path d="M111.91 80.8311V82.3534C111.91 83.4605 112.5 84.4837 113.459 85.0373L117.306 87.2584C121.244 83.8526 124.584 79.8123 127.189 75.3048C122.462 78.0354 117.289 79.9065 111.91 80.8311Z" fill="#603256"/>
<path d="M60.3527 65.6357L48.1987 58.6187C47.7276 58.3467 47.1933 58.2035 46.6493 58.2035C46.1054 58.2035 45.571 58.3467 45.0999 58.6187L41.2473 60.843C43.2427 71.3193 48.751 80.5503 56.5043 87.2592L60.3527 85.0372C60.8237 84.7652 61.2149 84.3741 61.4869 83.903C61.7589 83.4319 61.9021 82.8975 61.902 82.3536V68.3196C61.902 67.2122 61.3116 66.1892 60.3527 65.6357Z" fill="#603256"/>
<path d="M117.307 16.9294L113.459 19.1513C112.988 19.4233 112.597 19.8145 112.325 20.2856C112.053 20.7568 111.909 21.2912 111.909 21.8352V35.8692C111.909 36.9764 112.5 37.9993 113.459 38.5528L125.613 45.5699C126.084 45.8418 126.618 45.985 127.162 45.985C127.706 45.985 128.241 45.8418 128.712 45.5699L132.564 43.3455C130.569 32.8693 125.061 23.6383 117.307 16.9294Z" fill="#7C5577"/>
<path d="M122.002 17.4367C121.943 17.3544 121.877 17.272 121.802 17.1976C121.728 17.1233 121.646 17.0569 121.563 16.9984C112.803 8.34703 100.778 2.99998 87.5235 2.99998C84.49 2.99998 81.3371 3.24702 78.0646 3.74109H78.0619C69.7027 5.00281 60.5838 7.8689 50.8353 12.3048C40.0828 17.2003 28.5228 24.0189 16.4794 32.5694C13.5841 34.6253 10.795 36.6866 8.1441 38.7106C6.76816 41.25 5.5516 43.8903 4.50504 46.613C8.80816 43.1651 13.6186 39.4862 18.7877 35.818C45.3555 16.9559 69.1236 6.98436 87.5235 6.98436C88.8489 6.98436 90.1638 7.0428 91.46 7.15701C101.461 8.03889 110.519 12.2411 117.528 18.6533L114.654 21.5273L87.4943 48.6901C79.0554 40.9127 68.4171 36.6467 55.8344 36.0066C45.3396 35.4726 33.4847 37.4622 20.6019 41.9141C14.4979 44.0258 8.76832 46.4748 3.66832 48.9133C3.08129 50.6266 2.55801 52.369 2.10645 54.1408C7.88113 51.2242 14.6493 48.1908 21.9035 45.6806C49.0982 36.2801 70.2021 38.2431 84.676 51.5084L18.53 117.654C19.4411 118.619 20.3814 119.559 21.3457 120.47L87.4916 54.3241C100.744 68.782 102.715 89.862 93.346 117.02C90.8332 124.3 87.7838 131.095 84.8566 136.894C86.6283 136.442 88.3735 135.921 90.0868 135.332C92.5279 130.234 94.9743 124.505 97.086 118.398C101.538 105.515 103.525 93.6605 102.993 83.1656C102.353 70.583 98.0874 59.9447 90.3099 51.5058L117.473 24.3456L120.347 21.4716C126.759 28.4814 130.961 37.5392 131.843 47.54C131.957 48.8362 132.016 50.1511 132.016 51.4766C132.016 69.8658 122.057 93.618 103.217 120.165C99.5377 125.35 95.8455 130.179 92.3871 134.495C95.1097 133.448 97.75 132.232 100.289 130.856C102.313 128.205 104.375 125.416 106.431 122.521C114.981 110.477 121.8 98.9172 126.695 88.1647C131.131 78.4162 133.997 69.2973 135.259 60.9381V60.9355C135.753 57.663 136 54.51 136 51.4766C136 38.2219 130.653 26.197 122.002 17.4367Z" fill="white"/>
</g>
<path d="M186.9 74L181.8 98H160.1L165.6 72.3L155.8 34.5H179.8L186.6 59.6L201.6 34.5H212.4L186.9 74ZM205.786 58.7C209.186 57.0333 212.653 55.8333 216.186 55.1C219.786 54.3 223.786 53.9 228.186 53.9C232.453 53.9 235.986 54.2333 238.786 54.9C241.586 55.5667 243.819 56.5333 245.486 57.8C247.153 59.0667 248.319 60.5667 248.986 62.3C249.653 64.0333 249.986 66 249.986 68.2C249.986 69.4667 249.886 70.8333 249.686 72.3C249.553 73.7667 249.386 75 249.186 76L244.486 98H228.386L226.586 91.6H225.986C223.853 93.9333 221.353 95.7333 218.486 97C215.686 98.2 212.886 98.8 210.086 98.8C208.486 98.8 206.919 98.5667 205.386 98.1C203.853 97.6333 202.486 96.9333 201.286 96C200.086 95 199.119 93.7667 198.386 92.3C197.653 90.7667 197.286 88.9333 197.286 86.8C197.286 83.3333 198.219 80.6 200.086 78.6C202.019 76.5333 204.519 75 207.586 74C210.719 72.9333 214.219 72.2667 218.086 72C222.019 71.7333 225.953 71.6 229.886 71.6C230.019 70.9333 230.186 70 230.386 68.8C230.586 67.5333 230.686 66.4333 230.686 65.5C230.686 64.3 230.353 63.2 229.686 62.2C229.086 61.1333 227.786 60.6 225.786 60.6C223.453 60.6 221.719 61.3 220.586 62.7C219.519 64.0333 218.819 65.6667 218.486 67.6H203.886L205.786 58.7ZM228.786 76.3H226.986C225.053 76.3 223.386 76.5667 221.986 77.1C220.653 77.5667 219.553 78.2 218.686 79C217.886 79.8 217.286 80.7 216.886 81.7C216.486 82.7 216.286 83.7 216.286 84.7C216.286 86.3 216.686 87.5 217.486 88.3C218.353 89.1 219.353 89.5 220.486 89.5C221.886 89.5 223.253 89 224.586 88C225.986 87 226.853 85.6667 227.186 84L228.786 76.3ZM273.162 98H252.762L266.962 30.8H287.462L273.162 98ZM290.259 58.7C293.659 57.0333 297.125 55.8333 300.659 55.1C304.259 54.3 308.259 53.9 312.659 53.9C316.925 53.9 320.459 54.2333 323.259 54.9C326.059 55.5667 328.292 56.5333 329.959 57.8C331.625 59.0667 332.792 60.5667 333.459 62.3C334.125 64.0333 334.459 66 334.459 68.2C334.459 69.4667 334.359 70.8333 334.159 72.3C334.025 73.7667 333.859 75 333.659 76L328.959 98H312.859L311.059 91.6H310.459C308.325 93.9333 305.825 95.7333 302.959 97C300.159 98.2 297.359 98.8 294.559 98.8C292.959 98.8 291.392 98.5667 289.859 98.1C288.325 97.6333 286.959 96.9333 285.759 96C284.559 95 283.592 93.7667 282.859 92.3C282.125 90.7667 281.759 88.9333 281.759 86.8C281.759 83.3333 282.692 80.6 284.559 78.6C286.492 76.5333 288.992 75 292.059 74C295.192 72.9333 298.692 72.2667 302.559 72C306.492 71.7333 310.425 71.6 314.359 71.6C314.492 70.9333 314.659 70 314.859 68.8C315.059 67.5333 315.159 66.4333 315.159 65.5C315.159 64.3 314.825 63.2 314.159 62.2C313.559 61.1333 312.259 60.6 310.259 60.6C307.925 60.6 306.192 61.3 305.059 62.7C303.992 64.0333 303.292 65.6667 302.959 67.6H288.359L290.259 58.7ZM313.259 76.3H311.459C309.525 76.3 307.859 76.5667 306.459 77.1C305.125 77.5667 304.025 78.2 303.159 79C302.359 79.8 301.759 80.7 301.359 81.7C300.959 82.7 300.759 83.7 300.759 84.7C300.759 86.3 301.159 87.5 301.959 88.3C302.825 89.1 303.825 89.5 304.959 89.5C306.359 89.5 307.725 89 309.059 88C310.459 87 311.325 85.6667 311.659 84L313.259 76.3Z" fill="#FFA7F4"/>
<path d="M372.855 69H398.755L392.955 98H381.155L379.255 91.6H378.855C377.122 93.6 375.055 95.3 372.655 96.7C370.322 98.1 367.255 98.8 363.455 98.8C360.522 98.8 357.689 98.3333 354.955 97.4C352.289 96.4 349.889 94.8667 347.755 92.8C345.689 90.6667 344.022 87.9 342.755 84.5C341.489 81.1 340.855 77 340.855 72.2C340.855 67 341.655 62.0667 343.255 57.4C344.855 52.7333 347.255 48.6333 350.455 45.1C353.655 41.5 357.655 38.6667 362.455 36.6C367.255 34.5333 372.855 33.5 379.255 33.5C384.189 33.5 388.489 34.0667 392.155 35.2C395.822 36.3333 399.289 37.6 402.555 39L398.755 58.4H381.855C381.922 57.6667 382.022 56.8 382.155 55.8C382.289 54.8 382.389 53.7667 382.455 52.7C382.522 51.5667 382.589 50.4667 382.655 49.4C382.722 48.3333 382.755 47.4 382.755 46.6C382.755 46.0667 382.722 45.4667 382.655 44.8C382.589 44.0667 382.422 43.3667 382.155 42.7C381.889 42.0333 381.489 41.5 380.955 41.1C380.422 40.6333 379.655 40.4 378.655 40.4C376.922 40.4 375.322 41.1333 373.855 42.6C372.455 44 371.189 45.9 370.055 48.3C368.922 50.6333 367.922 53.3 367.055 56.3C366.255 59.3 365.555 62.3667 364.955 65.5C364.422 68.5667 363.989 71.6 363.655 74.6C363.389 77.5333 363.255 80.1 363.255 82.3C363.255 82.9667 363.289 83.8 363.355 84.8C363.422 85.8 363.622 86.8 363.955 87.8C364.355 88.7333 364.889 89.5667 365.555 90.3C366.289 90.9667 367.322 91.3 368.655 91.3C370.855 91.3 372.989 90.1 375.055 87.7C377.122 85.3 378.689 81.3 379.755 75.7H371.355L372.855 69ZM442.616 33.5C448.349 33.5 452.982 34.2333 456.516 35.7C460.116 37.1667 462.949 39.4333 465.016 42.5C466.349 44.5667 467.382 46.9 468.116 49.5C468.849 52.1 469.216 55.1 469.216 58.5C469.216 61.4333 468.949 64.3667 468.416 67.3C467.882 70.2333 467.116 73.0667 466.116 75.8C465.182 78.4667 464.016 81 462.616 83.4C461.282 85.7333 459.782 87.8 458.116 89.6C454.982 93 451.349 95.4 447.216 96.8C443.149 98.1333 438.116 98.8 432.116 98.8C426.316 98.8 421.649 98.2 418.116 97C414.582 95.8 411.782 93.8667 409.716 91.2C408.249 89.3333 407.082 86.9667 406.216 84.1C405.416 81.2333 405.016 77.6333 405.016 73.3C405.016 65.9 406.316 59.3 408.916 53.5C411.582 47.6333 415.349 43 420.216 39.6C423.149 37.5333 426.416 36 430.016 35C433.616 34 437.816 33.5 442.616 33.5ZM431.316 91.8C432.849 91.8 434.282 91.1333 435.616 89.8C437.016 88.4 438.282 86.5667 439.416 84.3C440.616 81.9667 441.682 79.3333 442.616 76.4C443.616 73.4667 444.449 70.4333 445.116 67.3C445.782 64.1667 446.282 61.0667 446.616 58C447.016 54.8667 447.216 52.0333 447.216 49.5C447.216 46.0333 446.849 43.6667 446.116 42.4C445.449 41.0667 444.449 40.4 443.116 40.4C441.582 40.4 440.116 41.0667 438.716 42.4C437.316 43.7333 435.982 45.5333 434.716 47.8C433.516 50 432.416 52.5667 431.416 55.5C430.482 58.3667 429.649 61.3333 428.916 64.4C428.249 67.4667 427.716 70.5 427.316 73.5C426.982 76.5 426.816 79.2667 426.816 81.8C426.816 85.6 427.216 88.2333 428.016 89.7C428.882 91.1 429.982 91.8 431.316 91.8ZM524.591 98H501.191L499.791 82.1H481.291L474.191 98H464.491L493.991 34.5H517.691L524.591 98ZM484.591 74.8H499.091L496.791 47.6L484.591 74.8ZM542.848 34.5H564.548L552.748 89.6H573.048L571.348 98H529.348L542.848 34.5ZM590.79 30.8H611.19L598.39 77.9H584.19L590.79 30.8ZM579.69 91.5C579.69 90.1 579.99 88.8667 580.59 87.8C581.19 86.6667 581.957 85.7333 582.89 85C583.89 84.2667 584.99 83.7333 586.19 83.4C587.457 83 588.757 82.8 590.09 82.8C592.557 82.8 594.623 83.4 596.29 84.6C598.023 85.8 598.89 87.6333 598.89 90.1C598.89 91.5 598.59 92.7667 597.99 93.9C597.457 94.9667 596.69 95.8667 595.69 96.6C594.757 97.3333 593.657 97.8667 592.39 98.2C591.19 98.6 589.89 98.8 588.49 98.8C586.023 98.8 583.923 98.2 582.19 97C580.523 95.8 579.69 93.9667 579.69 91.5Z" fill="white"/>
</svg>
