<svg width="457" height="69" viewBox="0 0 457 69" fill="none" xmlns="http://www.w3.org/2000/svg">
<path d="M31.9 44L26.8 68H5.1L10.6 42.3L0.8 4.49999H24.8L31.6 29.6L46.6 4.49999H57.4L31.9 44ZM50.7859 28.7C54.1859 27.0333 57.6526 25.8333 61.1859 25.1C64.7859 24.3 68.7859 23.9 73.1859 23.9C77.4526 23.9 80.9859 24.2333 83.7859 24.9C86.5859 25.5667 88.8193 26.5333 90.4859 27.8C92.1526 29.0667 93.3193 30.5667 93.9859 32.3C94.6526 34.0333 94.9859 36 94.9859 38.2C94.9859 39.4667 94.8859 40.8333 94.6859 42.3C94.5526 43.7667 94.3859 45 94.1859 46L89.4859 68H73.3859L71.5859 61.6H70.9859C68.8526 63.9333 66.3526 65.7333 63.4859 67C60.6859 68.2 57.8859 68.8 55.0859 68.8C53.4859 68.8 51.9193 68.5667 50.3859 68.1C48.8526 67.6333 47.4859 66.9333 46.2859 66C45.0859 65 44.1193 63.7667 43.3859 62.3C42.6526 60.7667 42.2859 58.9333 42.2859 56.8C42.2859 53.3333 43.2193 50.6 45.0859 48.6C47.0193 46.5333 49.5193 45 52.5859 44C55.7193 42.9333 59.2193 42.2667 63.0859 42C67.0193 41.7333 70.9526 41.6 74.8859 41.6C75.0193 40.9333 75.1859 40 75.3859 38.8C75.5859 37.5333 75.6859 36.4333 75.6859 35.5C75.6859 34.3 75.3526 33.2 74.6859 32.2C74.0859 31.1333 72.7859 30.6 70.7859 30.6C68.4526 30.6 66.7193 31.3 65.5859 32.7C64.5193 34.0333 63.8193 35.6667 63.4859 37.6H48.8859L50.7859 28.7ZM73.7859 46.3H71.9859C70.0526 46.3 68.3859 46.5667 66.9859 47.1C65.6526 47.5667 64.5526 48.2 63.6859 49C62.8859 49.8 62.2859 50.7 61.8859 51.7C61.4859 52.7 61.2859 53.7 61.2859 54.7C61.2859 56.3 61.6859 57.5 62.4859 58.3C63.3526 59.1 64.3526 59.5 65.4859 59.5C66.8859 59.5 68.2526 59 69.5859 58C70.9859 57 71.8526 55.6667 72.1859 54L73.7859 46.3ZM118.162 68H97.7617L111.962 0.799995H132.462L118.162 68ZM135.259 28.7C138.659 27.0333 142.125 25.8333 145.659 25.1C149.259 24.3 153.259 23.9 157.659 23.9C161.925 23.9 165.459 24.2333 168.259 24.9C171.059 25.5667 173.292 26.5333 174.959 27.8C176.625 29.0667 177.792 30.5667 178.459 32.3C179.125 34.0333 179.459 36 179.459 38.2C179.459 39.4667 179.359 40.8333 179.159 42.3C179.025 43.7667 178.859 45 178.659 46L173.959 68H157.859L156.059 61.6H155.459C153.325 63.9333 150.825 65.7333 147.959 67C145.159 68.2 142.359 68.8 139.559 68.8C137.959 68.8 136.392 68.5667 134.859 68.1C133.325 67.6333 131.959 66.9333 130.759 66C129.559 65 128.592 63.7667 127.859 62.3C127.125 60.7667 126.759 58.9333 126.759 56.8C126.759 53.3333 127.692 50.6 129.559 48.6C131.492 46.5333 133.992 45 137.059 44C140.192 42.9333 143.692 42.2667 147.559 42C151.492 41.7333 155.425 41.6 159.359 41.6C159.492 40.9333 159.659 40 159.859 38.8C160.059 37.5333 160.159 36.4333 160.159 35.5C160.159 34.3 159.825 33.2 159.159 32.2C158.559 31.1333 157.259 30.6 155.259 30.6C152.925 30.6 151.192 31.3 150.059 32.7C148.992 34.0333 148.292 35.6667 147.959 37.6H133.359L135.259 28.7ZM158.259 46.3H156.459C154.525 46.3 152.859 46.5667 151.459 47.1C150.125 47.5667 149.025 48.2 148.159 49C147.359 49.8 146.759 50.7 146.359 51.7C145.959 52.7 145.759 53.7 145.759 54.7C145.759 56.3 146.159 57.5 146.959 58.3C147.825 59.1 148.825 59.5 149.959 59.5C151.359 59.5 152.725 59 154.059 58C155.459 57 156.325 55.6667 156.659 54L158.259 46.3Z" fill="#FFA7F4"/>
<path d="M217.855 39H243.755L237.955 68H226.155L224.255 61.6H223.855C222.122 63.6 220.055 65.3 217.655 66.7C215.322 68.1 212.255 68.8 208.455 68.8C205.522 68.8 202.689 68.3333 199.955 67.4C197.289 66.4 194.889 64.8667 192.755 62.8C190.689 60.6667 189.022 57.9 187.755 54.5C186.489 51.1 185.855 47 185.855 42.2C185.855 37 186.655 32.0667 188.255 27.4C189.855 22.7333 192.255 18.6333 195.455 15.1C198.655 11.5 202.655 8.66667 207.455 6.6C212.255 4.53333 217.855 3.5 224.255 3.5C229.189 3.5 233.489 4.06666 237.155 5.2C240.822 6.33333 244.289 7.6 247.555 9L243.755 28.4H226.855C226.922 27.6667 227.022 26.8 227.155 25.8C227.289 24.8 227.389 23.7667 227.455 22.7C227.522 21.5667 227.589 20.4667 227.655 19.4C227.722 18.3333 227.755 17.4 227.755 16.6C227.755 16.0667 227.722 15.4667 227.655 14.8C227.589 14.0667 227.422 13.3667 227.155 12.7C226.889 12.0333 226.489 11.5 225.955 11.1C225.422 10.6333 224.655 10.4 223.655 10.4C221.922 10.4 220.322 11.1333 218.855 12.6C217.455 14 216.189 15.9 215.055 18.3C213.922 20.6333 212.922 23.3 212.055 26.3C211.255 29.3 210.555 32.3667 209.955 35.5C209.422 38.5667 208.989 41.6 208.655 44.6C208.389 47.5333 208.255 50.1 208.255 52.3C208.255 52.9667 208.289 53.8 208.355 54.8C208.422 55.8 208.622 56.8 208.955 57.8C209.355 58.7333 209.889 59.5667 210.555 60.3C211.289 60.9667 212.322 61.3 213.655 61.3C215.855 61.3 217.989 60.1 220.055 57.7C222.122 55.3 223.689 51.3 224.755 45.7H216.355L217.855 39ZM287.616 3.5C293.349 3.5 297.982 4.23333 301.516 5.7C305.116 7.16667 307.949 9.43333 310.016 12.5C311.349 14.5667 312.382 16.9 313.116 19.5C313.849 22.1 314.216 25.1 314.216 28.5C314.216 31.4333 313.949 34.3667 313.416 37.3C312.882 40.2333 312.116 43.0667 311.116 45.8C310.182 48.4667 309.016 51 307.616 53.4C306.282 55.7333 304.782 57.8 303.116 59.6C299.982 63 296.349 65.4 292.216 66.8C288.149 68.1333 283.116 68.8 277.116 68.8C271.316 68.8 266.649 68.2 263.116 67C259.582 65.8 256.782 63.8667 254.716 61.2C253.249 59.3333 252.082 56.9667 251.216 54.1C250.416 51.2333 250.016 47.6333 250.016 43.3C250.016 35.9 251.316 29.3 253.916 23.5C256.582 17.6333 260.349 13 265.216 9.59999C268.149 7.53333 271.416 6 275.016 4.99999C278.616 4 282.816 3.5 287.616 3.5ZM276.316 61.8C277.849 61.8 279.282 61.1333 280.616 59.8C282.016 58.4 283.282 56.5667 284.416 54.3C285.616 51.9667 286.682 49.3333 287.616 46.4C288.616 43.4667 289.449 40.4333 290.116 37.3C290.782 34.1667 291.282 31.0667 291.616 28C292.016 24.8667 292.216 22.0333 292.216 19.5C292.216 16.0333 291.849 13.6667 291.116 12.4C290.449 11.0667 289.449 10.4 288.116 10.4C286.582 10.4 285.116 11.0667 283.716 12.4C282.316 13.7333 280.982 15.5333 279.716 17.8C278.516 20 277.416 22.5667 276.416 25.5C275.482 28.3667 274.649 31.3333 273.916 34.4C273.249 37.4667 272.716 40.5 272.316 43.5C271.982 46.5 271.816 49.2667 271.816 51.8C271.816 55.6 272.216 58.2333 273.016 59.7C273.882 61.1 274.982 61.8 276.316 61.8ZM369.591 68H346.191L344.791 52.1H326.291L319.191 68H309.491L338.991 4.49999H362.691L369.591 68ZM329.591 44.8H344.091L341.791 17.6L329.591 44.8ZM387.848 4.49999H409.548L397.748 59.6H418.048L416.348 68H374.348L387.848 4.49999ZM435.79 0.799995H456.19L443.39 47.9H429.19L435.79 0.799995ZM424.69 61.5C424.69 60.1 424.99 58.8667 425.59 57.8C426.19 56.6667 426.957 55.7333 427.89 55C428.89 54.2667 429.99 53.7333 431.19 53.4C432.457 53 433.757 52.8 435.09 52.8C437.557 52.8 439.623 53.4 441.29 54.6C443.023 55.8 443.89 57.6333 443.89 60.1C443.89 61.5 443.59 62.7667 442.99 63.9C442.457 64.9667 441.69 65.8667 440.69 66.6C439.757 67.3333 438.657 67.8667 437.39 68.2C436.19 68.6 434.89 68.8 433.49 68.8C431.023 68.8 428.923 68.2 427.19 67C425.523 65.8 424.69 63.9667 424.69 61.5Z" fill="white"/>
</svg>
